<?xml version="1.0" encoding="utf-8"?>
<!-- Generator: Adobe Illustrator 15.0.2, SVG Export Plug-In . SVG Version: 6.00 Build 0)  -->
<!DOCTYPE svg PUBLIC "-//W3C//DTD SVG 1.1//EN" "http://www.w3.org/Graphics/SVG/1.1/DTD/svg11.dtd">
<svg version="1.1" id="Layer_1" xmlns="http://www.w3.org/2000/svg" xmlns:xlink="http://www.w3.org/1999/xlink" x="0px" y="0px"
	 width="1024px" height="1024px" viewBox="0 0 1024 1024" enable-background="new 0 0 1024 1024" xml:space="preserve">
<rect x="42.616" y="15.615" display="none" fill-rule="evenodd" clip-rule="evenodd" fill="#39B54A" width="922.454" height="964.452"/>
<path fill="#F1F2F2" d="M811.035,524.317c15.607-20.312,42.831-73.256,42.831-73.256l-18.896-82.006l-54.986-45.544
	c-2.339-34.592-15.131-57.056-33.582-73.841c1.26,5.854,2.069,11.825,2.456,17.882c-4.325-26.521-9.358-52.593-36.331-64.698
	c-13.859-31.961-53.757-47.347-88.717-65.877c0.156-0.698,0.311-1.396,0.467-2.095c-11.176-2.481-22.352-4.964-33.529-7.445
	c-28.271,3.793-55.334-4.616-78.695-2.084c-6.896,0.748-13.969-0.848-19.79,0.003c-4.915,0.719-8.7,4.402-14.434,5.591
	c-6.222,1.29-13.113-0.778-17.695,0.468c-7.178,1.952-16.651,6.807-24.212,10.016c-24.417,10.361-29.558,16.288-49.121,33.068
	c-9.517,8.163-21.335,13.948-27.004,22.589c-3.554,5.417-3.284,12.493-6.284,18.394c-3.491,6.868-11.271,15.301-17.373,22.688
	c-54.149,28.091-117.917,57.248-154.435,101.904c-13.08,15.996-27.17,40.838-22.771,70.386c5.737,38.543,33.517,65.777,59.09,91.062
	c22.678,43.721,43.428,156.815,43.83,242.166c-11.136,14.58-27.167,38.965-25,61c0.601,6.107,12.022,13.762,17,18
	c5.234,4.456,10.305,8.941,16.028,11.729c1.689,2.624,2.972,1.271,2.972,1.271l17,13c16.737,15.518,39.228,26.422,63,38
	c43.589,21.232,101.124,38.748,165,33c44.448-4,78.312-15.982,108-34c5.616-3.408,12.303-6.844,16.958-11.366l0.011,0.001
	l-0.001-0.01c2.298-2.234,4.108-4.729,5.032-7.625c4.778-14.967-4.935-50.426-9.365-64.962
	c-3.628-33.227,28.138-43.479,91.812-46.913c63.103-4.981,95.707-76.981,84.877-139.405
	C809.292,581.491,805.731,541.807,811.035,524.317z"/>
<g>
	<path fill="none" d="M551.899,351.886c-11.09-13.332-21.062-27.376-12.347-53.315c-25.198-4.529-62.72-29.215-81.491-9.3"/>
	<path fill="none" d="M449.671,228.039c-8-1.262-10.625,5.922-18.625,4.659c-20.506-10.947-47.824-9.942-67.056-14.891
		c12.718-2.631,29.588,1.257,43.771,0.925c5.364-21.405,0.988-39.62,8.837-59.604c-12.325,1.366-19.137,11.393-26.539,20.493
		c1.109,3.634,11.489,10.488,6.056,12.339c-5.392-2.565-3.272-9.913-10.712-11.174c-5.21,6.447-16.706,9.486-22.348,21.423
		c-8.884,18.795,2.028,14.743-9.774,24.216c-26.942,21.624-41.517,89.789,5.371,104.537c9.967-4.127,16.922-12.986,26.074-18.396
		c4.228-4.665,2.662-18.431,10.474-17.464c0.097,6.747-4.984,5.361-4.888,12.108c12.78-4.421,24.844-9.966,36.552-16.071
		c-5.973-2.284-12.132-13.749-4.66-18.626c-2.386,22.832,34.259,22.101,40.745,4.65
		C455.585,262.659,445.301,250.013,449.671,228.039z M389.607,260.876c3.951,4.083,1.657,12.14,7.685,14.899
		C391.465,279.948,387.318,267.833,389.607,260.876z M414.285,248.765c-12.988,7.551-23.521,7.632-42.141,1.638
		c-13.384,4.774-11.687,23.077-15.127,38.418c-7.728-9.648,4.416-31.043,8.841-39.814c14.991-0.978,45.396,7.287,45.632-7.457
		c3.761-1.104,11.295,10.732,11.411,17.925C415.938,258.51,420.265,250.357,414.285,248.765z"/>
	<path fill="none" d="M707.64,214.961c1.004-28.827-24.824-40.574-49.832-52.844c-10.768-0.898-11.076,14.635-19.322,17.697
		c-0.344-14.674,9.981-12.585,13.5-21.189c-18.271-18.498-69.985-31.47-94.297-20.939c-4.418,3.426-3.276,15.581-8.379,17.929
		c-4.76-10.24,5.627-16.229,9.311-22.119c-30.661-11.419-45.244,2.416-71.945-2.784c-20.058,9.329-18.412,42.687-5.812,55.88
		c26.663,5.045,50.363,3.77,75.904,14.656c8.352-7.313,8.979-24.257,9.541-33.062c-17.23-1.432-50.84,2.919-60.77-13.495
		c34.717,14.887,54.424,4.428,89.409,13.258c5.846-0.235,6.547-8.557,12.803-8.15c-2.047,5.262-7.656,4.932-9.078,11.177
		c27.764,8.716,34.516,30.808,66.594,36.776c6.064,1.262,7.584-10.743,11.873-3.96c-5.309,8.166-14.074,11.145-23.281,5.824
		c-0.364,9.458-9.301,13.937-2.092,19.324c-28.476,0.583-3.186,53.587-41.67,39.121c-3.988-4.658-9.215-8.528-12.343-13.734
		c-44.03-5.419-73.897-21.037-111.292-13.72c4.206-7.525,17.516-0.75,20.021-10.946c0.537-7.017-13.619-14.017-9.315-17.46
		c10.044,3.802,7.49,15.623,15.137,20.952c10.731,3.666,16.685-0.17,27.706,3.953c-4.49-14.289,3.593-23.779,11.637-32.597
		c-22.055-11.15-45.952-8.193-69.617-13.261c-7.534,13.604-19.911,19.599-28.865,30.97c1.395,22.907-0.502,45.364,18.634,54.712
		c9.492,4.636,24.16,0.113,36.554,3.72c10.991,3.198,13.978,13.507,25.846,12.335c3.966-8.605-15.735-41.563,8.142-46.565
		c-6.753,2.583-7.443,14.688-9.775,24.215c17.098,23.256-2.006,65.291,24.459,77.993c21.537,10.337,49.217-7.303,55.873-33.769
		c-9.13-9.781-13.27-22.74-18.632-34.921c-36.594-9.138-5.486,38.285-30.261,37.257c12.639-10.166,2.021-30.963,0.924-43.771
		c5.342,1.398,1.181,8.845,6.521,10.243c5.586-7.241,14.055-9.954,27.472-4.894c3.407,14.024,5.288,29.021,23.288,33.756
		c-4.487-1.396-7.048,0.235-7.683,4.892c-2.128,19.271-15.193,21.356-22.579,32.365c15.176,16.271,41.711,7.554,48.193-9.088
		c2.827-7.255-2.275-19.073-1.402-33.293c0.564-9.19,5.069-17.687,5.119-23.051c0.039-4.331-6.633-11.229-1.398-13.504
		c4.116,5.176,5.287,12.229,11.876,15.83c9.863,1.362,15.034-4.647,21.651-8.385c3.207-33.59,23.604-40.178,35.381-60.307
		c-6.423,26.655-29.915,26.495-31.19,61.237c-8.554,7.929-20.382,17.141-34.688,7.688c-8.998,29.718,3.092,46.012,1.873,70.778
		c10.545,9.48,27.178,15.086,36.091,25.605c6.466-3.034,13.954-4.458,21.187-6.289c2.426-9.94-1.324-15.949-1.168-24.446
		c8.891-10.244,22.076-17.117,24.21-29.806c5.38-32.004-34.004-22.686-44.942-45.161c4.432,9.529,30.035,13.98,38.418,15.128
		c7.302-3.606,11.287-12.419,17.227-18.163c4.408,11.586-14.943,15.588-16.061,22.819c-0.523,3.374,8.785,13.823,9.314,17.461
		c3.533,24.236-26.977,31.235-23.506,56.347c27.994-6.018,45.982-56.599,39.799-90.109c-3.145-3.396-4.627-7.85-8.615-10.709
		c6.664-12.054-0.898-22.03-2.799-27.007c-1.932-5.06-0.457-11.715-1.398-13.504c-4.283-8.13-13.303-14.87-21.889-20.253
		C709.759,208.87,710.763,215.157,707.64,214.961z M660.614,248.496c-3.644-5.478,3.602-17.888-6.754-19.091
		C663.181,223.621,667.386,243.8,660.614,248.496z M686.237,331.144c3.509-1.083,4.531-6.072,6.52-9.546
		c4.133,9.448-7.869,17.693-16.762,16.067c1.834-1.829,5.299-1.098,5.586-5.355c-8.094-11.042-20.605-19.271-20.727-35.387
		C664.966,311.099,676.896,320.297,686.237,331.144z M733.489,247.087c3.467,7.475-8.369,15.009-17.926,11.411
		C721.208,254.175,730.962,256.31,733.489,247.087z"/>
	<path fill="none" d="M642.935,347.915c-10.178,6.625-22.318,10.165-32.36,17.001c15.847,7.16,45.331,23.302,64.495,16.521
		C663.351,370.904,640.493,367.461,642.935,347.915z"/>
	<path fill="none" d="M574.69,170.046c-4.437,29.776-24.316,35.291-31.189,61.238c5.93,16.902,33.969,10.903,46.801,16.988
		c3.207-5.812-6.658-12.325-1.399-13.504c9.743,11.407,20.405,39.968,42.378,27.002c-5.17-24.838,12.142-31.392,20.016-50.526
		C628.856,196.659,611.753,169.352,574.69,170.046z M619.401,226.15c-7.172-8.029-16.365-14.772-26.08-21.183
		c-1.702-1.796,19.889,6.675,17.926-11.411c5.812-2.973-2.48,12.828-3.723,16.764C610.756,216.06,620.97,217.354,619.401,226.15z"/>
	<path fill="none" d="M410.787,215.006c24.401,33.899,49.555-9.367,68.215-20.033c-9.714-16.427-15.545-40.562-6.76-58.671
		c-23.061-6.292-31.976,22.261-31.658,43.543c5.882,4.203,13.002-3.629,14.668,3.258c-6.443,1.185-13.096,2.04-20.255,2.098
		c-1.958-15.855,11.192-32.75,6.746-40.279c-6.788,3.47-14.729,5.128-21.651,8.386C410.81,180.227,421.503,191.195,410.787,215.006z
		"/>
	<path d="M653.86,229.405c10.355,1.203,3.11,13.613,6.754,19.091C667.386,243.8,663.181,223.621,653.86,229.405z"/>
	<path d="M733.489,247.087c-2.527,9.223-12.281,7.088-17.926,11.411C725.12,262.096,736.956,254.562,733.489,247.087z"/>
	<path d="M389.607,260.876c-2.289,6.957,1.857,19.071,7.685,14.899C391.264,273.016,393.558,264.959,389.607,260.876z"/>
	<path d="M458.062,289.271c18.771-19.915,56.292,4.771,81.491,9.3c-8.715,25.939,1.257,39.983,12.347,53.315l3.727,3.026
		c14.281,4.534,22.606-0.291,33.295-1.402c42.906,47.482,140.779,49.127,157.853-17.719c0.698,0.155,1.396,0.311,2.095,0.466
		c2.482-11.176,4.963-22.353,7.445-33.528c-11.74-35.11-4.553-82.268-43.787-99.875c-13.859-31.961-53.757-47.347-88.717-65.877
		c0.156-0.698,0.311-1.396,0.467-2.095c-11.176-2.481-22.352-4.964-33.529-7.445c-28.271,3.793-55.334-4.616-78.695-2.084
		c-6.896,0.748-13.969-0.848-19.79,0.003c-4.915,0.719-8.7,4.402-14.434,5.591c-6.222,1.29-13.113-0.778-17.695,0.468
		c-7.178,1.952-16.651,6.807-24.212,10.016c-24.417,10.361-29.558,16.288-49.121,33.068c-9.517,8.163-21.335,13.948-27.004,22.589
		c-3.554,5.417-3.284,12.493-6.284,18.394c-5.521,10.86-21.771,25.636-25.14,33.996c-2.327,10.479-4.653,20.955-6.98,31.434
		c3.834,22.748,5.386,46.95,34.233,53.777 M441.743,144.921c4.446,7.529-8.705,24.424-6.746,40.279
		c7.16-0.058,13.812-0.913,20.255-2.098c-1.666-6.887-8.787,0.945-14.668-3.258c-0.317-21.282,8.597-49.835,31.658-43.543
		c-8.785,18.108-2.954,42.244,6.76,58.671c-18.66,10.666-43.814,53.933-68.215,20.033c10.716-23.812,0.023-34.779,9.304-61.699
		C427.014,150.049,434.955,148.391,441.743,144.921z M422.205,272.512c-7.472,4.877-1.313,16.342,4.66,18.626
		c-11.708,6.105-23.772,11.65-36.552,16.071c-0.097-6.747,4.984-5.361,4.888-12.108c-7.812-0.967-6.247,12.799-10.474,17.464
		c-9.151,5.41-16.106,14.27-26.074,18.396c-46.887-14.748-32.313-82.913-5.371-104.537c11.802-9.473,0.89-5.421,9.774-24.216
		c5.642-11.937,17.137-14.976,22.348-21.423c7.44,1.261,5.32,8.608,10.712,11.174c5.433-1.851-4.947-8.705-6.056-12.339
		c7.402-9.101,14.214-19.127,26.539-20.493c-7.85,19.984-3.474,38.199-8.837,59.604c-14.184,0.332-31.053-3.556-43.771-0.925
		c19.232,4.948,46.55,3.943,67.056,14.891c8,1.263,10.625-5.921,18.625-4.659c-4.37,21.975,5.914,34.62,13.278,49.124
		C456.464,294.613,419.819,295.344,422.205,272.512z M610.574,364.916c10.042-6.836,22.183-10.376,32.36-17.001
		c-2.441,19.547,20.416,22.989,32.135,33.521C655.905,388.217,626.421,372.076,610.574,364.916z M735.116,229.858
		c0.941,1.789-0.533,8.444,1.398,13.504c1.9,4.977,9.463,14.953,2.799,27.007c3.988,2.859,5.471,7.312,8.615,10.709
		c6.184,33.511-11.805,84.092-39.799,90.109c-3.471-25.111,27.039-32.11,23.506-56.347c-0.529-3.638-9.838-14.087-9.314-17.461
		c1.117-7.231,20.469-11.233,16.061-22.819c-5.939,5.744-9.925,14.557-17.227,18.163c-8.383-1.147-33.986-5.599-38.418-15.128
		c10.938,22.476,50.322,13.157,44.942,45.161c-2.134,12.688-15.319,19.562-24.21,29.806c-0.156,8.497,3.594,14.506,1.168,24.446
		c-7.232,1.831-14.721,3.255-21.187,6.289c-8.913-10.52-25.546-16.125-36.091-25.605c1.219-24.767-10.871-41.061-1.873-70.778
		c14.307,9.452,26.135,0.24,34.688-7.688c1.275-34.742,24.768-34.582,31.19-61.237c-11.777,20.129-32.174,26.717-35.381,60.307
		c-6.617,3.737-11.788,9.747-21.651,8.385c-6.589-3.602-7.76-10.654-11.876-15.83c-5.234,2.274,1.438,9.173,1.398,13.504
		c-0.05,5.364-4.555,13.86-5.119,23.051c-0.873,14.22,4.229,26.038,1.402,33.293c-6.482,16.642-33.018,25.359-48.193,9.088
		c7.386-11.009,20.451-13.095,22.579-32.365c0.635-4.656,3.195-6.287,7.683-4.892c-18-4.735-19.881-19.731-23.288-33.756
		c-13.417-5.061-21.886-2.348-27.472,4.894c-5.341-1.398-1.18-8.845-6.521-10.243c1.098,12.809,11.715,33.605-0.924,43.771
		c24.774,1.028-6.333-46.395,30.261-37.257c5.362,12.181,9.502,25.14,18.632,34.921c-6.656,26.466-34.336,44.105-55.873,33.769
		c-26.465-12.702-7.361-54.737-24.459-77.993c2.332-9.526,3.022-21.632,9.775-24.215c-23.877,5.002-4.176,37.96-8.142,46.565
		c-11.868,1.172-14.854-9.137-25.846-12.335c-12.394-3.606-27.062,0.916-36.554-3.72c-19.137-9.348-17.239-31.805-18.634-54.712
		c8.955-11.371,21.332-17.366,28.865-30.97c23.665,5.067,47.562,2.11,69.617,13.261c-8.044,8.817-16.127,18.308-11.637,32.597
		c-11.021-4.123-16.975-0.287-27.706-3.953c-7.647-5.329-5.093-17.15-15.137-20.952c-4.304,3.443,9.852,10.443,9.315,17.46
		c-2.505,10.196-15.815,3.421-20.021,10.946c37.395-7.317,67.262,8.301,111.292,13.72c3.128,5.206,8.354,9.076,12.343,13.734
		c38.484,14.466,13.194-38.538,41.67-39.121c-7.209-5.388,1.728-9.866,2.092-19.324c9.207,5.32,17.973,2.342,23.281-5.824
		c-4.289-6.783-5.809,5.222-11.873,3.96c-32.078-5.969-38.83-28.061-66.594-36.776c1.422-6.245,7.031-5.915,9.078-11.177
		c-6.256-0.406-6.957,7.915-12.803,8.15c-34.984-8.83-54.691,1.629-89.409-13.258c9.93,16.414,43.54,12.063,60.77,13.495
		c-0.562,8.806-1.189,25.749-9.541,33.062c-25.541-10.887-49.241-9.611-75.904-14.656c-12.599-13.193-14.245-46.551,5.812-55.88
		c26.701,5.2,41.284-8.635,71.945,2.784c-3.684,5.89-14.07,11.879-9.311,22.119c5.103-2.348,3.961-14.503,8.379-17.929
		c24.312-10.53,76.025,2.441,94.297,20.939c-3.519,8.604-13.844,6.516-13.5,21.189c8.246-3.062,8.555-18.596,19.322-17.697
		c25.008,12.27,50.836,24.017,49.832,52.844c3.123,0.195,2.119-6.092,5.588-5.356C721.813,214.988,730.833,221.728,735.116,229.858z
		 M631.28,261.771c-21.973,12.966-32.635-15.595-42.378-27.002c-5.259,1.179,4.606,7.692,1.399,13.504
		c-12.832-6.085-40.871-0.086-46.801-16.988c6.873-25.947,26.753-31.462,31.189-61.238c37.062-0.694,54.166,26.612,76.605,41.198
		C643.422,230.379,626.11,236.933,631.28,261.771z"/>
	<path d="M607.524,210.32c1.242-3.936,9.535-19.736,3.723-16.764c1.963,18.086-19.628,9.615-17.926,11.411
		c9.715,6.41,18.908,13.153,26.08,21.183C620.97,217.354,610.756,216.06,607.524,210.32z"/>
	<path d="M411.49,241.549c-0.237,14.744-30.642,6.479-45.632,7.457c-4.426,8.771-16.569,30.166-8.841,39.814
		c3.44-15.341,1.743-33.644,15.127-38.418c18.62,5.994,29.152,5.913,42.141-1.638c5.98,1.592,1.653,9.745,8.616,10.709
		C422.786,252.282,415.251,240.446,411.49,241.549z"/>
	<path d="M681.581,332.31c-0.287,4.258-3.752,3.526-5.586,5.355c8.893,1.626,20.895-6.619,16.762-16.067
		c-1.988,3.474-3.011,8.463-6.52,9.546c-9.342-10.847-21.271-20.045-25.383-34.221C660.976,313.04,673.487,321.268,681.581,332.31z"
		/>
</g>
<g>
	<path fill="none" d="M783.853,569.687c6.026,6.205,16.832,3.012,23-1c-4.205,0.204-8.36,0.359-9-3c0.843-7.284,3.964-14.836-1-20
		C779.985,538.102,775.926,561.522,783.853,569.687z"/>
	<path fill="none" d="M736.853,546.687c-7.934-2.08-13.799,2.344-15,9c-1.519,8.416,4.256,10.822,4,20
		c-1.799,4.201-7.618,4.381-12,6c12.776-0.404,23.971,0.977,29-7C748.531,565.681,744.274,548.631,736.853,546.687z"/>
	<path d="M608.849,588.684c-1.582,2.082-1.916,9.32,2,9c4.302-0.064,2.996-6.332,2-9
		C611.516,588.684,610.182,588.684,608.849,588.684z"/>
	<path d="M644.853,598.687c-5.914-0.545-5.326,12.334,0,12C650.749,610.45,649.599,599.31,644.853,598.687z"/>
	<path d="M575.846,610.693c-4.971,0-4.971,8,0,8C577.315,617.238,577.315,612.146,575.846,610.693z"/>
	<path d="M686.853,629.687c2.208-4.057,1.864-8.67-1-12c-1.333,0-2.667,0-4,0C679.919,622.142,678.774,630.354,686.853,629.687z"/>
	<path d="M616.849,632.684c1.802-2.779,1.56-10.43-1-12C608.456,619.08,608.708,635.414,616.849,632.684z"/>
	<path d="M583.846,644.693c-2.269,3.297-2.373,10.291,3,11C589.938,653.43,590.016,643.58,583.846,644.693z"/>
	<path d="M677.853,660.686c1.625-3.547,1.322-9.554-1-11.999C668.646,647.86,669.39,662.369,677.853,660.686z"/>
	<path d="M629.853,670.686c6.884,0.082,6.464-12.885,0-13C625.296,659.699,626.554,668.307,629.853,670.686z"/>
	<path d="M261.853,743.686c-11.136,14.58-27.167,38.965-25,61c0.601,6.107,12.022,13.762,17,18c6.122,5.213,12.019,10.473,19,13
		c4.679-23.988,12.636-44.697,22-64C282.823,763.383,273.652,752.219,261.853,743.686z"/>
	<path d="M476.853,849.686c-69.45-4.656-122.599-37.9-167-66c-8.656,12.521-18.193,43.873-20,65c16.737,15.518,39.228,26.422,63,38
		c43.589,21.232,101.124,38.748,165,33c44.448-4,78.312-15.982,108-34c8.394-5.094,19.203-10.236,22-19
		c7.421-23.246-6.201-47.637-10-68C595.792,828.229,548.265,854.475,476.853,849.686z"/>
	<path d="M780.679,496.552c-8.579-9.056-18.254-17.426-27.826-25.866c-19.362-17.073-33.769-36.718-46-58
		c-1.332-2.317-3.295-9.334-5-6c11.237,23.17,22.873,45.313,39,63c15.7,17.218,35.171,31.863,43,55
		c-26.007-4.592-73.172-10.224-83,11c-7.932,17.127,4.546,44.094,16,56c9.024,9.381,32.39,24.607,47,23
		c9.83-1.082,25.962-12.707,34-23c10.66-13.65,13.821-36.257,8-55c-3.426-11.032-9.056-20.676-15.97-29.51
		c1.373,6.91,3.256,13.593,5.815,19.96C787.667,518.557,783.135,508.146,780.679,496.552z M742.853,574.687
		c-5.029,7.977-16.224,6.596-29,7c4.382-1.619,10.201-1.799,12-6c0.256-9.178-5.519-11.584-4-20c1.201-6.656,7.066-11.08,15-9
		C744.274,548.631,748.531,565.681,742.853,574.687z M797.853,565.687c0.64,3.359,4.795,3.204,9,3c-6.168,4.012-16.974,7.205-23,1
		c-7.927-8.164-3.867-31.585,13-24C801.816,550.851,798.695,558.402,797.853,565.687z"/>
	<path d="M771.702,408.388c-2.258-23.963-25.392-27.052-45.544-33.123c-0.324-2.437,0.356-5.876-2.069-6.21
		C710.938,402.172,746.073,426.478,771.702,408.388z"/>
	<path d="M790.333,692.001c-3.884-15.438-16.41-22.232-28.981-28.982c-43.957,27.92-86.681,66.039-153.192,68.314
		c-74.984,2.568-110.861-49.02-140.771-101.438c16.058,65.469,42.749,125.561,113.859,130.422
		c76.608,5.234,129.123-47.5,178.034-78.666c14.502,8.973,24.3,26.525,18.632,49.682c36.315-11.967,48.79-76.266,37.263-115.928
		C812.277,646.319,812.547,680.401,790.333,692.001z"/>
	<path d="M630.931,629.896c-0.464,3.916,2.333,4.568,2.07,8.281c5.928,0.408,11.299,0.258,10.351-6.211
		C643.31,626.292,633.586,627.05,630.931,629.896z"/>
	<path d="M661.983,652.667c-2.646-0.113-2.867-2.652-6.21-2.07c-0.652,2.799-2.947,3.955-2.07,8.281
		C659.116,659.462,662.607,658.122,661.983,652.667z"/>
	<path d="M612.3,689.931c0-2.76,0-5.521,0-8.279c-3.606-0.156-6.438,0.461-8.281,2.07
		C603.395,689.175,606.886,690.515,612.3,689.931z"/>
	<path d="M651.633,696.142c0-2.76,0-5.521,0-8.279c-2.07,0-4.141,0-6.211,0C644.845,693.269,644.724,698.22,651.633,696.142z"/>
	<path d="M688.896,741.685c27.363,37.119,79.921-1.873,82.807-31.053C760.824,736.485,720.787,750.044,688.896,741.685z"/>
	<path d="M779.983,323.511c-2.339-34.592-15.131-57.056-33.582-73.841c1.445,6.719,2.335,13.583,2.626,20.563
		c10.004,14.064,16.712,31.124,18.534,47.068c1.265,11.061-3.608,23.465-2.069,35.192c1.351,10.292,10.734,21.39,12.421,33.123
		c5.295,36.836-4.1,78.516,2.766,110.936c2.456,11.593,6.988,22.004,15.02,30.584c-2.56-6.367-4.442-13.05-5.815-19.96
		c-10.729-54.012,10.044-122.102-11.97-165.034c71.41,20.98,86.997,127.516,33.122,182.174c1.48,5.314,7.396-4.873,10.352-8.279
		c4.963-5.727,10.57-12.57,14.49-18.633C879.211,430.394,844.899,351.479,779.983,323.511z"/>
	<path d="M388.131,370.16c-2.263,8.725-4.154,17.976-5.621,27.877c-7.729,52.182,4.535,109.844,4.141,163.543
		c-0.203,27.664-5.516,66.855-31.053,66.244c-15.641-0.373-33.487-28.971-43.473-45.543c-13.451-22.322-21.895-42.822-33.123-57.965
		c-14.967-20.184-37.408-38.846-55.895-62.104c-15.346-19.307-41.618-49.519-37.264-80.737c1.9-13.622,15.754-28.113,24.842-39.333
		c37.871-46.751,87.138-75.358,132.492-107.649c-55.562,29.25-123.362,58.973-161.475,105.579
		c-13.08,15.996-27.17,40.838-22.771,70.386c8.426,56.603,64.39,88.817,91.088,126.281c17.806,24.984,29.65,52.105,51.754,78.666
		c16.378,19.68,51.058,56.812,78.666,51.754c20.182-3.697,29.156-37.959,31.053-66.244c5.044-75.225-17.575-147.274-12.6-220.837
		C395.13,376.892,391.545,373.58,388.131,370.16z"/>
</g>
<g display="none">
	<path display="inline" d="M606.51,523.854c-1.582,2.082-1.916,9.32,2,9c4.302-0.064,2.996-6.332,2-9
		C609.177,523.854,607.843,523.854,606.51,523.854z"/>
	<path display="inline" d="M642.514,533.857c-5.914-0.545-5.326,12.334,0,12C648.41,545.621,647.26,534.48,642.514,533.857z"/>
	<path display="inline" d="M573.507,545.864c-4.971,0-4.971,8,0,8C574.977,552.409,574.977,547.317,573.507,545.864z"/>
	<path display="inline" d="M684.514,564.857c2.208-4.057,1.864-8.67-1-12c-1.333,0-2.667,0-4,0
		C677.58,557.312,676.436,565.525,684.514,564.857z"/>
	<path display="inline" d="M614.51,567.854c1.802-2.779,1.56-10.43-1-12C606.117,554.251,606.369,570.585,614.51,567.854z"/>
	<path display="inline" d="M581.507,579.864c-2.269,3.297-2.373,10.291,3,11C587.599,588.601,587.677,578.751,581.507,579.864z"/>
	<path display="inline" d="M675.514,595.856c1.625-3.547,1.322-9.554-1-11.999C666.308,583.031,667.051,597.54,675.514,595.856z"/>
	<path display="inline" d="M627.514,605.856c6.884,0.082,6.464-12.885,0-13C622.957,594.87,624.215,603.478,627.514,605.856z"/>
	<path display="inline" d="M259.514,678.856c-11.136,14.58-27.167,38.965-25,61c0.601,6.107,12.022,13.762,17,18
		c6.122,5.213,12.019,10.473,19,13c4.679-23.988,12.636-44.697,22-64C280.484,698.554,271.313,687.39,259.514,678.856z"/>
	<path display="inline" d="M474.514,784.856c-69.45-4.656-122.599-37.9-167-66c-8.656,12.521-18.193,43.873-20,65
		c16.737,15.518,39.228,26.422,63,38c43.589,21.232,101.124,38.748,165,33c44.448-4,78.312-15.982,108-34
		c8.394-5.094,19.203-10.236,22-19c7.421-23.246-6.201-47.637-10-68C593.453,763.399,545.926,789.646,474.514,784.856z"/>
	<path display="inline" d="M787.994,627.172c-3.884-15.438-16.41-22.232-28.981-28.982c-43.957,27.92-86.681,66.039-153.192,68.314
		c-74.984,2.568-110.861-49.02-140.771-101.438c16.058,65.469,42.749,125.561,113.859,130.422
		c76.608,5.234,129.123-47.5,178.034-78.666c14.502,8.973,24.3,26.525,18.632,49.682c36.315-11.967,48.79-76.266,37.263-115.928
		C809.938,581.49,810.208,615.572,787.994,627.172z"/>
	<path display="inline" d="M628.592,565.066c-0.464,3.916,2.333,4.568,2.07,8.281c5.928,0.408,11.299,0.258,10.351-6.211
		C640.971,561.463,631.247,562.221,628.592,565.066z"/>
	<path display="inline" d="M659.645,587.838c-2.646-0.113-2.867-2.652-6.21-2.07c-0.652,2.799-2.947,3.955-2.07,8.281
		C656.777,594.633,660.269,593.293,659.645,587.838z"/>
	<path display="inline" d="M609.961,625.102c0-2.76,0-5.521,0-8.279c-3.606-0.156-6.438,0.461-8.281,2.07
		C601.056,624.346,604.547,625.686,609.961,625.102z"/>
	<path display="inline" d="M649.294,631.312c0-2.76,0-5.521,0-8.279c-2.07,0-4.141,0-6.211,0
		C642.506,628.439,642.385,633.391,649.294,631.312z"/>
	<path display="inline" d="M686.557,676.855c27.363,37.119,79.921-1.873,82.807-31.053
		C758.485,671.656,718.448,685.215,686.557,676.855z"/>
	<path display="inline" d="M777.645,258.682c-2.339-34.592-15.131-57.056-33.582-73.841c1.26,5.854,2.069,11.825,2.456,17.882
		c-4.325-26.521-9.358-52.593-36.331-64.698c-13.859-31.961-53.757-47.347-88.717-65.877c0.156-0.698,0.311-1.396,0.467-2.095
		c-11.176-2.481-22.352-4.964-33.529-7.445c-28.271,3.793-55.334-4.616-78.695-2.084c-6.896,0.748-13.969-0.848-19.79,0.003
		c-4.915,0.719-8.7,4.402-14.434,5.591c-6.222,1.29-13.113-0.778-17.695,0.468c-7.178,1.952-16.651,6.807-24.212,10.016
		c-24.417,10.361-29.558,16.288-49.121,33.068c-9.517,8.163-21.335,13.948-27.004,22.589c-3.554,5.417-3.284,12.493-6.284,18.394
		c-3.491,6.868-11.271,15.301-17.373,22.688c-54.149,28.091-117.917,57.248-154.435,101.904
		c-13.08,15.996-27.17,40.838-22.771,70.386c8.426,56.603,64.39,88.817,91.088,126.28c17.806,24.985,29.65,52.106,51.754,78.667
		c16.378,19.68,51.058,56.812,78.666,51.754c20.182-3.697,29.156-37.959,31.053-66.244c5.044-75.224-17.575-147.274-12.6-220.837
		c-3.763-3.186-7.349-6.498-10.762-9.917c-2.263,8.725-4.154,17.976-5.621,27.877c-7.729,52.182,4.535,109.845,4.141,163.543
		c-0.203,27.665-5.516,66.856-31.053,66.245c-15.641-0.373-33.487-28.971-43.473-45.543c-13.451-22.323-21.895-42.823-33.123-57.964
		c-14.967-20.184-37.408-38.846-55.895-62.105c-15.346-19.307-41.618-49.519-37.264-80.737c1.9-13.622,15.754-28.113,24.842-39.333
		c35.263-43.531,80.403-71.333,123.068-101.023c-2.464,3.141-4.434,6.003-5.382,8.357c-2.327,10.479-4.653,20.955-6.98,31.434
		c3.834,22.748,5.386,46.95,34.233,53.777l102.436-45.417l93.837,62.615l3.727,3.026c14.281,4.534,22.606-0.291,33.295-1.402
		c32.813,36.313,97.774,45.814,134.157,18.376c-10.124,31.646,23.731,54.071,48.624,36.501
		c-2.258-23.963-25.392-27.052-45.544-33.123c-0.233-1.753,0.048-4.019-0.676-5.28c10-8.298,17.567-19.616,21.291-34.194
		c0.698,0.155,1.396,0.311,2.095,0.466c2.482-11.176,4.963-22.353,7.445-33.528c-3.346-10.006-5.154-20.99-6.938-31.989
		c9.809,13.967,16.386,30.806,18.187,46.562c1.265,11.061-3.608,23.465-2.069,35.192c1.351,10.292,10.734,21.39,12.421,33.123
		c5.295,36.836-4.1,78.516,2.766,110.936c-8.579-9.056-18.254-17.426-27.826-25.866c-19.362-17.073-33.769-36.718-46-58
		c-1.332-2.317-3.295-9.334-5-6c11.237,23.17,22.873,45.313,39,63c15.7,17.218,35.171,31.863,43,55
		c-26.007-4.591-73.172-10.223-83,11c-7.932,17.128,4.546,44.094,16,56c9.024,9.381,32.39,24.607,47,23
		c9.83-1.082,25.962-12.707,34-23c10.66-13.65,13.821-36.257,8-55c-3.426-11.032-9.056-20.675-15.97-29.51
		c-10.729-54.012,10.044-122.102-11.97-165.033c71.41,20.98,86.997,127.516,33.122,182.175c1.48,5.313,7.396-4.873,10.352-8.28
		c4.963-5.727,10.57-12.57,14.49-18.633C876.872,365.564,842.561,286.65,777.645,258.682z"/>
</g>
<path fill-rule="evenodd" clip-rule="evenodd" d="M587.457,412.528c-26.21,27.788-66.681-10.707-91.087,4.141
	c13.061-23.59,44.222-39.86,82.807-31.053c4.002-5.038,1.991-17.319,0-22.772c13.668,12.397,17.684,40.652,8.28,60.035
	C582.839,422.575,590.144,417.664,587.457,412.528z"/>
</svg>
